<svg width="13" height="9" fill="none" xmlns="http://www.w3.org/2000/svg"><path fill-rule="evenodd" clip-rule="evenodd" d="M7.8 1.89c.2.15.25.43.1.63l-3.48 4.5c-.08.1-.2.17-.33.18a.47.47 0 0 1-.36-.13L1.4 4.82a.44.44 0 0 1 0-.64.47.47 0 0 1 .65 0L4 6.06l3.16-4.08c.15-.2.44-.24.64-.09Z" fill="#356DF9"/><path fill-rule="evenodd" clip-rule="evenodd" d="M11.43 1.89c.22.15.26.43.1.63l-3.75 4.5a.52.52 0 0 1-.37.18.53.53 0 0 1-.39-.13l-2.5-2.25a.42.42 0 0 1 0-.64c.2-.17.51-.17.7 0l2.1 1.88 3.4-4.08c.17-.2.48-.24.7-.09Z" fill="#356DF9"/></svg>