<svg width="24" height="24" viewBox="0 0 24 24" fill="none" xmlns="http://www.w3.org/2000/svg">
<path fill-rule="evenodd" clip-rule="evenodd" d="M19.3334 12C19.3334 7.94987 16.0501 4.66663 12 4.66663C7.94993 4.66663 4.66669 7.94987 4.66669 12C4.66669 16.05 7.94993 19.3333 12 19.3333C16.0501 19.3333 19.3334 16.05 19.3334 12ZM12 21.3333C6.84536 21.3333 2.66669 17.1546 2.66669 12C2.66669 6.8453 6.84536 2.66663 12 2.66663C17.1547 2.66663 21.3334 6.8453 21.3334 12C21.3334 17.1546 17.1547 21.3333 12 21.3333ZM8.0522 11C7.49992 11 7.05221 11.4478 7.05221 12C7.05221 12.5523 7.49992 13.0001 8.05221 13.0001L11.0019 13.0001L11.002 15.9498C11.0019 16.5021 11.4497 16.9498 12.0019 16.9498C12.5542 16.9498 13.0019 16.5021 13.002 15.9498L13.002 13L15.9517 13.0001C16.504 13 16.9517 12.5523 16.9517 12C16.9517 11.4478 16.504 11 15.9517 11H13.002L13.002 8.05027C13.002 7.498 12.5543 7.05029 12.002 7.05027C11.4496 7.05033 11.002 7.498 11.0019 8.05033L11.002 11L8.0522 11Z" fill="#5E6B80"/>
</svg>
