<svg width="22" height="22" viewBox="0 0 22 22" fill="none" xmlns="http://www.w3.org/2000/svg">
<path fill-rule="evenodd" clip-rule="evenodd" d="M8.25 7.33333C8.25 5.81455 9.48117 4.58333 11 4.58333C12.5188 4.58333 13.75 5.81455 13.75 7.33333C13.75 8.85211 12.5188 10.0833 11 10.0833C9.48117 10.0833 8.25 8.85211 8.25 7.33333ZM11 2.75C8.4687 2.75 6.41667 4.80203 6.41667 7.33333C6.41667 9.86462 8.4687 11.9167 11 11.9167C13.5313 11.9167 15.5833 9.86462 15.5833 7.33333C15.5833 4.80203 13.5313 2.75 11 2.75ZM12.4624 13.361C10.3182 13.1556 7.98755 13.4035 6.15314 14.1471C4.34591 14.8796 2.75 16.2296 2.75 18.3332C2.75 18.8394 3.16041 19.2499 3.66667 19.2499C4.17292 19.2499 4.58333 18.8394 4.58333 18.3332C4.58333 17.3413 5.31047 16.4669 6.84184 15.8461C8.34603 15.2365 10.3695 15.0023 12.2876 15.186C12.7915 15.2342 13.2392 14.8648 13.2875 14.3608C13.3358 13.8569 12.9663 13.4092 12.4624 13.361ZM18.9422 17.6458L20.3565 19.0602C20.7145 19.4181 20.7145 19.9986 20.3565 20.3565C19.9986 20.7145 19.4181 20.7145 19.0602 20.3565L17.6458 18.9422L16.2315 20.3565C15.8736 20.7145 15.2931 20.7145 14.9352 20.3565C14.5772 19.9986 14.5772 19.4181 14.9352 19.0602L16.3495 17.6458L14.9352 16.2315C14.5772 15.8736 14.5772 15.2931 14.9352 14.9352C15.2931 14.5772 15.8736 14.5772 16.2315 14.9352L17.6458 16.3495L19.0602 14.9352C19.4181 14.5772 19.9986 14.5772 20.3565 14.9352C20.7145 15.2931 20.7145 15.8736 20.3565 16.2315L18.9422 17.6458Z" fill="#5E6B80"/>
</svg>
