<svg width="24" height="24" viewBox="0 0 24 24" fill="none" xmlns="http://www.w3.org/2000/svg">
<path fill-rule="evenodd" clip-rule="evenodd" d="M5 2L8 2C9.6438 2 11 3.31792 11 4.9726L11 8.33992C11 9.99461 9.64381 11.3125 8.00001 11.3125H5.00001C3.35621 11.3125 2.00001 9.99461 2.00001 8.33993L2 4.9726C2 3.31792 3.3562 2 5 2ZM8 4L5 4C4.43467 4 4 4.44841 4 4.9726L4.00001 8.33992C4.00001 8.86411 4.43467 9.31252 5.00001 9.31252H8.00001C8.56534 9.31252 9.00001 8.86411 9.00001 8.33993L9 4.9726C9 4.44841 8.56533 4 8 4ZM16 4C15.4347 4 15 4.44841 15 4.9726L15 8.33992C15 8.86411 15.4347 9.31252 16 9.31252H19C19.5653 9.31252 20 8.86412 20 8.33992L20 4.9726C20 4.44841 19.5653 4 19 4L16 4ZM13 4.9726C13 3.31792 14.3562 2 16 2L19 2C20.6438 2 22 3.31792 22 4.9726L22 8.33992C22 9.9946 20.6438 11.3125 19 11.3125H16C14.3562 11.3125 13 9.99461 13 8.33993L13 4.9726ZM5.00001 14.6875C4.43467 14.6875 4.00001 15.1359 4.00001 15.6601L4.00001 19.0274C4.00001 19.5516 4.43468 20 5.00001 20H8.00001C8.56534 20 9.00001 19.5516 9.00001 19.0274L9.00001 15.6601C9.00001 15.1359 8.56534 14.6875 8.00001 14.6875H5.00001ZM2.00001 15.6601C2.00001 14.0054 3.35621 12.6875 5.00001 12.6875H8.00001C9.64381 12.6875 11 14.0054 11 15.6601L11 19.0274C11 20.6821 9.64382 22 8.00001 22H5.00001C3.35621 22 2.00001 20.6821 2.00001 19.0274L2.00001 15.6601ZM16 14.6875C15.4347 14.6875 15 15.1359 15 15.6601L15 19.0274C15 19.5516 15.4347 20 16 20H19C19.5653 20 20 19.5516 20 19.0274V15.6601C20 15.1359 19.5653 14.6875 19 14.6875H16ZM13 15.6601C13 14.0054 14.3562 12.6875 16 12.6875H19C20.6438 12.6875 22 14.0054 22 15.6601V19.0274C22 20.6821 20.6438 22 19 22H16C14.3562 22 13 20.6821 13 19.0274L13 15.6601Z" fill="#5E6B80"/>
</svg>
