<svg width="24" height="24" viewBox="0 0 24 24" fill="none" xmlns="http://www.w3.org/2000/svg">
<path fill-rule="evenodd" clip-rule="evenodd" d="M19.3334 12C19.3334 7.94987 16.0501 4.66663 12 4.66663C7.94993 4.66663 4.66669 7.94987 4.66669 12C4.66669 16.05 7.94993 19.3333 12 19.3333C16.0501 19.3333 19.3334 16.05 19.3334 12ZM12 21.3333C6.84536 21.3333 2.66669 17.1546 2.66669 12C2.66669 6.8453 6.84536 2.66663 12 2.66663C17.1547 2.66663 21.3334 6.8453 21.3334 12C21.3334 17.1546 17.1547 21.3333 12 21.3333ZM9.91616 8.50001C9.52564 8.10949 8.89247 8.10949 8.50195 8.50001C8.11141 8.89054 8.11141 9.5237 8.50195 9.91423L10.5877 12L8.50194 14.0858C8.11142 14.4763 8.11142 15.1095 8.50194 15.5C8.89247 15.8905 9.52563 15.8905 9.91616 15.5L12.002 13.4142L14.0877 15.5C14.4783 15.8905 15.1114 15.8905 15.502 15.5C15.8925 15.1095 15.8925 14.4763 15.502 14.0858L13.4162 12L15.502 9.91423C15.8925 9.5237 15.8925 8.89054 15.502 8.50001C15.1114 8.10949 14.4783 8.10949 14.0877 8.50001L12.002 10.5858L9.91616 8.50001Z" fill="#5E6B80"/>
</svg>
