<svg width="22" height="22" viewBox="0 0 22 22" fill="none" xmlns="http://www.w3.org/2000/svg">
<path d="M12.6682 20.1667H9.33155C8.90084 20.1667 8.52816 19.867 8.43599 19.4462L8.0629 17.7192C7.5652 17.5011 7.09327 17.2284 6.65582 16.9061L4.9719 17.4424C4.56124 17.5734 4.11481 17.4005 3.8994 17.0271L2.2274 14.1387C2.01436 13.7652 2.08776 13.294 2.40432 13.003L3.71057 11.8113C3.65117 11.2715 3.65117 10.7268 3.71057 10.187L2.40432 8.99804C2.08729 8.70688 2.01387 8.23512 2.2274 7.86137L3.89574 4.97112C4.11114 4.59777 4.55757 4.42492 4.96824 4.55587L6.65215 5.09212C6.87587 4.92635 7.10877 4.77333 7.34974 4.63379C7.58105 4.50334 7.8191 4.38524 8.0629 4.27996L8.4369 2.55479C8.52863 2.13401 8.90091 1.83382 9.33155 1.83337H12.6682C13.0989 1.83382 13.4711 2.13401 13.5629 2.55479L13.9406 4.28087C14.198 4.3941 14.4487 4.52203 14.6913 4.66404C14.9177 4.79495 15.1365 4.93848 15.3467 5.09396L17.0316 4.55771C17.4419 4.42724 17.8878 4.60002 18.1031 4.97296L19.7715 7.86321C19.9845 8.23673 19.9112 8.70793 19.5946 8.99896L18.2883 10.1906C18.3477 10.7304 18.3477 11.2751 18.2883 11.815L19.5946 13.0066C19.9112 13.2977 19.9845 13.7688 19.7715 14.1424L18.1031 17.0326C17.8878 17.4055 17.4419 17.5783 17.0316 17.4479L15.3467 16.9116C15.1335 17.0686 14.912 17.214 14.6831 17.347C14.4427 17.4863 14.1948 17.612 13.9406 17.7238L13.5629 19.4462C13.4708 19.8666 13.0986 20.1663 12.6682 20.1667ZM6.9849 14.8766L7.73657 15.4266C7.90602 15.5515 8.08262 15.6662 8.26549 15.7704C8.43755 15.87 8.6147 15.9606 8.79624 16.0417L9.65147 16.4166L10.0704 18.3334H11.9312L12.3501 16.4157L13.2054 16.0408C13.5787 15.8762 13.9331 15.6715 14.2623 15.4303L15.0149 14.8803L16.8858 15.4761L17.8162 13.8646L16.3651 12.5419L16.4678 11.6142C16.5129 11.2085 16.5129 10.7989 16.4678 10.3932L16.3651 9.46554L17.8171 8.14004L16.8858 6.52762L15.0149 7.12346L14.2623 6.57346C13.933 6.33119 13.5787 6.12498 13.2054 5.95837L12.3501 5.58346L11.9312 3.66671H10.0704L9.64964 5.58437L8.79624 5.95837C8.61455 6.03816 8.43738 6.12783 8.26549 6.22696C8.08375 6.33084 7.90807 6.445 7.73932 6.56887L6.98674 7.11887L5.11674 6.52304L4.18449 8.14004L5.29019 9.14656C5.50717 9.34408 5.61649 9.63357 5.58425 9.92516L5.5329 10.3895C5.4878 10.7953 5.4878 11.2048 5.5329 11.6105L5.58423 12.0744C5.61649 12.3658 5.50737 12.6551 5.29066 12.8526L4.18449 13.861L5.1149 15.4725L6.9849 14.8766ZM10.9962 14.6667C8.97119 14.6667 7.32957 13.025 7.32957 11C7.32957 8.975 8.97119 7.33337 10.9962 7.33337C13.0213 7.33337 14.6629 8.975 14.6629 11C14.6604 13.024 13.0202 14.6641 10.9962 14.6667ZM10.9962 9.16671C9.99467 9.16772 9.17929 9.97227 9.16495 10.9737C9.15059 11.9752 9.9426 12.8028 10.9437 12.8325C11.9448 12.8622 12.7845 12.0831 12.8296 11.0825V11.4492V11C12.8296 9.98749 12.0088 9.16671 10.9962 9.16671Z" fill="#5E6B80"/>
</svg>
