<svg width="40" height="40" viewBox="0 0 40 40" fill="none" xmlns="http://www.w3.org/2000/svg">
<path fill-rule="evenodd" clip-rule="evenodd" d="M0 4C0 1.79086 1.79086 0 4 0H36C38.2091 0 40 1.79086 40 4V36C40 38.2091 38.2091 40 36 40H4C1.79086 40 0 38.2091 0 36V4ZM4 2H36C37.1046 2 38 2.89543 38 4V25.2667L25.3453 22.3139C24.4514 22.1053 23.5365 22 22.6186 22H17.3814C16.4635 22 15.5486 22.1053 14.6547 22.3139L2 25.2667V4C2 2.89543 2.89543 2 4 2ZM14.5455 10.9091C14.5455 12.9174 12.9174 14.5455 10.9091 14.5455C8.90082 14.5455 7.27276 12.9174 7.27276 10.9091C7.27276 8.90079 8.90082 7.27273 10.9091 7.27273C12.9174 7.27273 14.5455 8.90079 14.5455 10.9091Z" fill="#CDCDCD"/>
</svg>
